<svg id="Layer_1" data-name="Layer 1" xmlns="http://www.w3.org/2000/svg" width="64" height="64" viewBox="0 0 64 64"><defs><style>.cls-1{fill:#666;}</style></defs><title>folder</title><path id="folder" class="cls-1" d="M59,20H56V18a4,4,0,0,0-4-4H28a3.22,3.22,0,0,1-3.2-1.6A5.13,5.13,0,0,0,20,10H8a4,4,0,0,0-4,4V52a4,4,0,0,0,4,4H56a4,4,0,0,0,4-4V21A1,1,0,0,0,59,20ZM8,21V54a2,2,0,0,1-2-2V14a2,2,0,0,1,2-2H20a3.22,3.22,0,0,1,3.2,1.6A5.13,5.13,0,0,0,28,16H52a2,2,0,0,1,2,2v2H9A1,1,0,0,0,8,21ZM58,52a2,2,0,0,1-2,2H10V22H58V52Z"/></svg>