<svg id="Layer_1" data-name="Layer 1" xmlns="http://www.w3.org/2000/svg" width="64" height="64" viewBox="0 0 64 64"><defs><style>.cls-1{fill:#666;}</style></defs><title>file_tick</title><path id="file_tick" class="cls-1" d="M41.71,17.29l-11-11A1,1,0,0,0,30,6H10a4,4,0,0,0-4,4V50a4,4,0,0,0,4,4H21a1,1,0,0,0,0-2H10a2,2,0,0,1-2-2V10a2,2,0,0,1,2-2H28v8a4,4,0,0,0,4,4h8V45a1,1,0,0,0,2,0V18A1,1,0,0,0,41.71,17.29ZM30,16V8.41L39.59,18H32A2,2,0,0,1,30,16ZM55.71,38.29a1,1,0,0,0-1.41,0L35,57.59l-9.29-9.29a1,1,0,0,0-1.41,1.41l10,10a1,1,0,0,0,1.41,0v0h0l20-20A1,1,0,0,0,55.71,38.29Z"/></svg>