<svg id="Layer_1" data-name="Layer 1" xmlns="http://www.w3.org/2000/svg" width="64" height="64" viewBox="0 0 64 64"><defs><style>.cls-1{fill:#666;}</style></defs><title>file_alarm</title><path id="file_alarm" class="cls-1" d="M43.71,17.29l-11-11A1,1,0,0,0,32,6H12a4,4,0,0,0-4,4V50a4,4,0,0,0,4,4H29a1,1,0,0,0,0-2H12a2,2,0,0,1-2-2V10a2,2,0,0,1,2-2H30v8a4,4,0,0,0,4,4h8v9a1,1,0,1,0,2,0V18A1,1,0,0,0,43.71,17.29ZM32,16V8.41L41.59,18H34A2,2,0,0,1,32,16ZM53,54h0a1.42,1.42,0,0,1-1.4-1.46l-0.4-6.61c-0.38-5.3-3-9-6.8-9.78V35a1,1,0,0,0-1-1H42.6a1,1,0,0,0-1,1v1.15c-3.75.75-6.42,4.49-6.8,9.8L34.4,52.6A1.4,1.4,0,0,1,33,54a1,1,0,0,0,0,2H53A1,1,0,1,0,53,54ZM36.11,54a3.22,3.22,0,0,0,.29-1.34l0.4-6.59C37.15,41.24,39.64,38,43,38s5.85,3.24,6.2,8.06l0.4,6.54a3.35,3.35,0,0,0,.3,1.4H36.11ZM43,60a3.78,3.78,0,0,1-2.66-1.09,1,1,0,0,1,1.4-1.43,1.84,1.84,0,0,0,2.52,0,1,1,0,0,1,1.39,1.43A3.78,3.78,0,0,1,43,60Z"/></svg>