<?xml version="1.0" encoding="utf-8"?>
<!-- Generator: Adobe Illustrator 21.0.0, SVG Export Plug-In . SVG Version: 6.00 Build 0)  -->
<svg version="1.1" id="Layer_1" xmlns="http://www.w3.org/2000/svg" xmlns:xlink="http://www.w3.org/1999/xlink" x="0px" y="0px"
	 viewBox="0 0 1792 1792" style="enable-background:new 0 0 1792 1792;" xml:space="preserve">
<path d="M1665.6,1050V280.4c0-8-2.9-15-8.8-20.8c-5.9-5.9-12.8-8.8-20.8-8.8H156c-8,0-15,2.9-20.8,8.8c-5.9,5.9-8.8,12.8-8.8,20.8
	V1050c0,8,2.9,15,8.8,20.8s12.8,8.8,20.8,8.8h1480c8,0,15-2.9,20.8-8.8S1665.6,1058,1665.6,1050z M1784,280.4v1006.4
	c0,40.7-14.5,75.5-43.5,104.5c-29,29-63.8,43.5-104.5,43.5h-503.2c0,22.8,4.9,46.7,14.8,71.7c9.9,25,19.7,46.9,29.6,65.7
	c9.9,18.8,14.8,32.2,14.8,40.2c0,16-5.9,29.9-17.6,41.6c-11.7,11.7-25.6,17.6-41.6,17.6H659.2c-16,0-29.9-5.9-41.6-17.6
	c-11.7-11.7-17.6-25.6-17.6-41.6c0-8.6,4.9-22.2,14.8-40.7s19.7-40.1,29.6-64.8c9.9-24.7,14.8-48.7,14.8-72.1H156
	c-40.7,0-75.5-14.5-104.5-43.5c-29-29-43.5-63.8-43.5-104.5V280.4c0-40.7,14.5-75.5,43.5-104.5s63.8-43.5,104.5-43.5h1480
	c40.7,0,75.5,14.5,104.5,43.5S1784,239.7,1784,280.4z"/>
</svg>
