<?xml version="1.0" encoding="utf-8"?>
<!-- Generator: Adobe Illustrator 21.0.0, SVG Export Plug-In . SVG Version: 6.00 Build 0)  -->
<svg version="1.1" id="Layer_1" xmlns="http://www.w3.org/2000/svg" xmlns:xlink="http://www.w3.org/1999/xlink" x="0px" y="0px"
	 viewBox="0 0 1792 1792" style="enable-background:new 0 0 1792 1792;" xml:space="preserve">
<path d="M1194,861.8c0-8.7-2.8-15.8-8.4-21.4L857.8,512.6c-5.6-5.6-12.7-8.4-21.4-8.4s-15.8,2.8-21.4,8.4L488.1,839.5
	c-6.2,7.5-9.3,14.9-9.3,22.3c0,8.7,2.8,15.8,8.4,21.4s12.7,8.4,21.4,8.4h208.6v327.8c0,8.1,2.9,15.1,8.8,21s12.9,8.8,21,8.8h178.8
	c8.1,0,15.1-2.9,21-8.8s8.8-12.9,8.8-21V891.6h208.6c8.1,0,15.1-2.9,21-8.8S1194,869.9,1194,861.8z M1790,1130
	c0,98.7-34.9,183-104.8,252.8s-154.1,104.8-252.8,104.8H419.2c-114.9,0-213.1-40.8-294.7-122.5S2,1185.3,2,1070.4
	c0-80.7,21.7-155.2,65.2-223.5S169,727.4,242.3,693.2c-1.2-18.6-1.9-32-1.9-40c0-131.6,46.6-244,139.7-337.1
	s205.5-139.7,337.1-139.7c96.8,0,185.5,27,265.9,81s138.9,125.7,175.5,215.1c44.1-38.5,95.6-57.7,154.6-57.7
	c65.8,0,122,23.3,168.6,69.8s69.8,102.7,69.8,168.6c0,47.2-12.7,90-38.2,128.5c80.7,19.2,147,61.3,198.8,126.2
	C1764.1,972.8,1790,1046.8,1790,1130z"/>
</svg>
