<svg id="Layer_1" data-name="Layer 1" xmlns="http://www.w3.org/2000/svg" width="64" height="64" viewBox="0 0 64 64"><defs><style>.cls-1{fill:#666;}</style></defs><title>db</title><path id="db" class="cls-1" d="M32,4C21.4,4,10,6.19,10,11V53c0,4.81,11.4,7,22,7s22-2.19,22-7V11C54,6.19,42.6,4,32,4ZM52,39c0,2-7.12,5-20,5s-20-3-20-5V28.16C15.73,30.78,24.09,32,32,32s16.27-1.22,20-3.84V39Zm0-14c0,2-7.12,5-20,5s-20-3-20-5V14.16C15.73,16.78,24.09,18,32,18s16.27-1.22,20-3.84V25ZM32,6c12.88,0,20,3,20,5s-7.12,5-20,5-20-3-20-5S19.12,6,32,6Zm0,52c-12.88,0-20-3-20-5V42.16C15.73,44.78,24.09,46,32,46s16.27-1.22,20-3.84V53C52,55,44.88,58,32,58Z"/></svg>